<?xml version="1.0" encoding="utf-8"?>
<!-- Generator: Adobe Illustrator 19.0.0, SVG Export Plug-In . SVG Version: 6.00 Build 0)  -->
<svg version="1.0" id="Capa_1" xmlns="http://www.w3.org/2000/svg" xmlns:xlink="http://www.w3.org/1999/xlink" x="0px" y="0px"
	 viewBox="0 0 175 175" style="enable-background:new 0 0 175.2 174.5;" xml:space="preserve">
<g id="XMLID_89_">
	<circle id="XMLID_106_" style="fill:#c50045;" cx="87.6" cy="87.6" r="87.6"/>
	<g id="XMLID_101_">
		<circle id="XMLID_105_" style="fill:#FFFFFF;" cx="87.6" cy="87.6" r="9.8"/>
		<path id="XMLID_102_" style="fill:#FFFFFF;" d="M111.9,63.6h-8.8l-6-6H78.2l-6,6h-8.8c-3.6,0-6.5,2.9-6.5,6.5v36.4
			c0,3.6,2.9,6.5,6.5,6.5h48.5c3.6,0,6.5-2.9,6.5-6.5V70.1C118.4,66.5,115.5,63.6,111.9,63.6z M87.6,103.7
			c-8.5,0-15.4-6.9-15.4-15.4s6.9-15.4,15.4-15.4c8.5,0,15.4,6.9,15.4,15.4S96.2,103.7,87.6,103.7z"/>
	</g>
</g>
</svg>
