<?xml version="1.0" encoding="utf-8"?>
<!-- Generator: Adobe Illustrator 19.0.0, SVG Export Plug-In . SVG Version: 6.00 Build 0)  -->
<svg version="1.0" id="Capa_1" xmlns="http://www.w3.org/2000/svg" xmlns:xlink="http://www.w3.org/1999/xlink" x="0px" y="0px"
	 viewBox="0 0 51 30" style="enable-background:new 0 0 51 30;" xml:space="preserve">
<path style="fill-rule:evenodd;clip-rule:evenodd;fill:none;stroke:#2b4047;stroke-width:1.5;stroke-miterlimit:10;" d="M25.5,1
	c7.4,0,14.8,0,22.3,0c1.6,0,2.3,0.7,2.3,2.3c0,7.8,0,15.6,0,23.4c0,1.5-0.7,2.2-2.3,2.2c-5.1,0-10.2,0-15.3,0
	c-0.9,0-1.2-0.2-1.5-1.1c-0.5-1.8-1-3.7-1.6-5.5c-0.2-0.7-0.5-1.4-0.9-2c-1.5-2.4-4.6-2.4-5.9,0.1c-0.7,1.4-1.1,2.9-1.6,4.4
	c-0.3,1-0.6,2.1-0.9,3.2c-0.2,0.7-0.6,1-1.4,1C13.5,29,8.3,29,3,29c-1.3,0-2.1-0.8-2.1-2.1c0-4.6,0-9.3,0-13.9c0-3.2,0-6.4,0-9.6
	C0.9,1.7,1.7,1,3.2,1C10.6,1,18.1,1,25.5,1z M41.6,15c0-2.8-2.3-5-5.1-5c-2.8,0-5.1,2.2-5.1,5c0,2.8,2.3,5,5.1,5
	C39.3,20,41.6,17.8,41.6,15z M9.4,15c0,2.8,2.3,5,5.1,5c2.8,0,5.1-2.2,5.1-5c0-2.8-2.3-5-5.1-5C11.7,10,9.4,12.2,9.4,15z"/>
</svg>
