<?xml version="1.0" encoding="utf-8"?>
<!-- Generator: Adobe Illustrator 19.0.0, SVG Export Plug-In . SVG Version: 6.00 Build 0)  -->
<svg version="1.0" id="Capa_1" xmlns="http://www.w3.org/2000/svg" xmlns:xlink="http://www.w3.org/1999/xlink" x="0px" y="0px"
	 viewBox="0 0 46 30" style="enable-background:new 0 0 46 30;" xml:space="preserve">
<path id="XMLID_83_" style="fill-rule:evenodd;clip-rule:evenodd;fill:none;stroke:#44616E;stroke-width:1.5;stroke-miterlimit:10;" d="
	M78.5,1c7.4,0,14.8,0,22.3,0c1.6,0,2.3,0.7,2.3,2.3c0,7.8,0,15.6,0,23.4c0,1.5-0.7,2.2-2.3,2.2c-5.1,0-10.2,0-15.3,0
	c-0.9,0-1.2-0.2-1.5-1.1c-0.5-1.8-1-3.7-1.6-5.5c-0.2-0.7-0.5-1.4-0.9-2c-1.5-2.4-4.6-2.4-5.9,0.1c-0.7,1.4-1.1,2.9-1.6,4.4
	c-0.3,1-0.6,2.1-0.9,3.2c-0.2,0.7-0.6,1-1.4,1c-5.3,0-10.6,0-15.8,0c-1.3,0-2.1-0.8-2.1-2.1c0-4.6,0-9.3,0-13.9c0-3.2,0-6.4,0-9.6
	c0-1.5,0.7-2.2,2.3-2.2C63.6,1,71.1,1,78.5,1z M94.6,15c0-2.8-2.3-5-5.1-5c-2.8,0-5.1,2.2-5.1,5c0,2.8,2.3,5,5.1,5
	C92.3,20,94.6,17.8,94.6,15z M62.4,15c0,2.8,2.3,5,5.1,5c2.8,0,5.1-2.2,5.1-5c0-2.8-2.3-5-5.1-5C64.7,10,62.4,12.2,62.4,15z"/>
<g id="XMLID_85_">
	
		<path id="XMLID_84_" style="fill-rule:evenodd;clip-rule:evenodd;fill:none;stroke:#2b4047;stroke-width:1.5;stroke-miterlimit:10;" d="
		M23,3.3c-9.5,0-17.6,3.9-20.4,9.3c-0.8,1.5-0.8,3.4,0,4.9c2.8,5.4,10.9,9.3,20.4,9.3c9.5,0,17.6-3.9,20.4-9.3
		c0.8-1.5,0.8-3.4,0-4.9C40.6,7.2,32.5,3.3,23,3.3z"/>
	
		<circle id="XMLID_86_" style="fill-rule:evenodd;clip-rule:evenodd;fill:none;stroke:#2b4047;stroke-width:1.5;stroke-miterlimit:10;" cx="23" cy="15" r="7.2"/>
</g>
<ellipse id="XMLID_129_" style="fill:#2B4047;" cx="-175.6" cy="10" rx="92.6" ry="135"/>
</svg>
